<mxfile host="app.diagrams.net" modified="2022-04-30T12:13:04.343Z" agent="5.0 (Macintosh; Intel Mac OS X 10_15_7) AppleWebKit/537.36 (KHTML, like Gecko) Chrome/100.0.4896.127 Safari/537.36" etag="VvpA4OOMvSee2u1m2bpO" version="17.5.0" type="github">
  <diagram id="B095lPG-_4MU9BpSfTT3" name="Page-1">
    <mxGraphModel dx="823" dy="477" grid="1" gridSize="10" guides="1" tooltips="1" connect="1" arrows="1" fold="1" page="1" pageScale="1" pageWidth="850" pageHeight="1100" math="0" shadow="0">
      <root>
        <mxCell id="0" />
        <mxCell id="1" parent="0" />
        <mxCell id="uYIiVFCoQzqRn4Q6k0h5-3" value="STM-32&lt;br&gt;Micro controller" style="rounded=1;whiteSpace=wrap;html=1;labelBackgroundColor=#FFFCFC;fontColor=#111112;" parent="1" vertex="1">
          <mxGeometry x="290" y="130" width="230" height="190" as="geometry" />
        </mxCell>
        <mxCell id="uYIiVFCoQzqRn4Q6k0h5-4" value="HC-SRO4&lt;br&gt;Ultrasonic" style="rounded=1;whiteSpace=wrap;html=1;labelBackgroundColor=#FFFCFC;fontColor=#111112;" parent="1" vertex="1">
          <mxGeometry x="610" y="180" width="120" height="60" as="geometry" />
        </mxCell>
        <mxCell id="uYIiVFCoQzqRn4Q6k0h5-5" value="MPU-9250" style="rounded=1;whiteSpace=wrap;html=1;labelBackgroundColor=#FFFCFC;fontColor=#111112;" parent="1" vertex="1">
          <mxGeometry x="610" y="260" width="110" height="70" as="geometry" />
        </mxCell>
        <mxCell id="uYIiVFCoQzqRn4Q6k0h5-6" value="NEO-M8N&lt;br&gt;GPS" style="rounded=1;whiteSpace=wrap;html=1;labelBackgroundColor=#FFFCFC;fontColor=#111112;" parent="1" vertex="1">
          <mxGeometry x="370" y="370" width="120" height="60" as="geometry" />
        </mxCell>
        <mxCell id="tK23bqZ6_Czorj_P_Bk--1" value="&lt;p style=&quot;box-sizing: border-box ; margin-top: 0px ; margin-bottom: 0.48em ; line-height: 1.28em ; color: rgb(51 , 62 , 72)&quot;&gt;&lt;font style=&quot;line-height: 1.2 ; font-size: 12px&quot;&gt;ORANGE 1800mAh 3S&lt;/font&gt;&lt;/p&gt;" style="rounded=1;whiteSpace=wrap;html=1;rotation=-90;" parent="1" vertex="1">
          <mxGeometry x="60" y="195" width="120" height="60" as="geometry" />
        </mxCell>
        <mxCell id="tK23bqZ6_Czorj_P_Bk--2" value="Power distribution board" style="rounded=1;whiteSpace=wrap;html=1;rotation=-90;" parent="1" vertex="1">
          <mxGeometry x="160" y="195" width="120" height="60" as="geometry" />
        </mxCell>
        <mxCell id="tK23bqZ6_Czorj_P_Bk--4" value="" style="endArrow=none;html=1;rounded=0;" parent="1" edge="1">
          <mxGeometry width="50" height="50" relative="1" as="geometry">
            <mxPoint x="150" y="230" as="sourcePoint" />
            <mxPoint x="190" y="230" as="targetPoint" />
          </mxGeometry>
        </mxCell>
        <mxCell id="tK23bqZ6_Czorj_P_Bk--5" value="Buck converter&lt;p style=&quot;box-sizing: border-box ; margin-top: 0px ; margin-bottom: 0.48em ; line-height: 1.28em ; color: rgb(51 , 62 , 72) ; background-color: rgb(255 , 255 , 255)&quot;&gt;&lt;font style=&quot;font-size: 12px&quot;&gt;XL4015&lt;/font&gt;&lt;/p&gt;" style="rounded=1;whiteSpace=wrap;html=1;align=center;" parent="1" vertex="1">
          <mxGeometry x="180" y="340" width="100" height="60" as="geometry" />
        </mxCell>
        <mxCell id="tK23bqZ6_Czorj_P_Bk--6" value="L298 Motor Driver" style="rounded=1;whiteSpace=wrap;html=1;" parent="1" vertex="1">
          <mxGeometry x="310" y="30" width="180" height="70" as="geometry" />
        </mxCell>
        <mxCell id="tK23bqZ6_Czorj_P_Bk--7" value="Motor SPG30E" style="rounded=1;whiteSpace=wrap;html=1;" parent="1" vertex="1">
          <mxGeometry x="580" y="10" width="70" height="45" as="geometry" />
        </mxCell>
        <mxCell id="tK23bqZ6_Czorj_P_Bk--8" value="Motor SPG30E" style="rounded=1;whiteSpace=wrap;html=1;" parent="1" vertex="1">
          <mxGeometry x="580" y="70" width="70" height="45" as="geometry" />
        </mxCell>
        <mxCell id="tK23bqZ6_Czorj_P_Bk--9" value="" style="endArrow=none;html=1;rounded=0;" parent="1" edge="1">
          <mxGeometry width="50" height="50" relative="1" as="geometry">
            <mxPoint x="220" y="165" as="sourcePoint" />
            <mxPoint x="220" y="60" as="targetPoint" />
          </mxGeometry>
        </mxCell>
        <mxCell id="tK23bqZ6_Czorj_P_Bk--10" value="" style="endArrow=none;html=1;rounded=0;entryX=0.004;entryY=0.42;entryDx=0;entryDy=0;entryPerimeter=0;" parent="1" target="tK23bqZ6_Czorj_P_Bk--6" edge="1">
          <mxGeometry width="50" height="50" relative="1" as="geometry">
            <mxPoint x="220" y="60" as="sourcePoint" />
            <mxPoint x="300" y="60" as="targetPoint" />
          </mxGeometry>
        </mxCell>
        <mxCell id="tK23bqZ6_Czorj_P_Bk--11" value="" style="endArrow=none;html=1;rounded=0;exitX=0.478;exitY=0.002;exitDx=0;exitDy=0;exitPerimeter=0;" parent="1" source="uYIiVFCoQzqRn4Q6k0h5-3" edge="1">
          <mxGeometry width="50" height="50" relative="1" as="geometry">
            <mxPoint x="400" y="130" as="sourcePoint" />
            <mxPoint x="400" y="100" as="targetPoint" />
          </mxGeometry>
        </mxCell>
        <mxCell id="tK23bqZ6_Czorj_P_Bk--12" value="" style="endArrow=none;html=1;rounded=0;entryX=0.013;entryY=0.44;entryDx=0;entryDy=0;entryPerimeter=0;" parent="1" target="tK23bqZ6_Czorj_P_Bk--8" edge="1">
          <mxGeometry width="50" height="50" relative="1" as="geometry">
            <mxPoint x="490" y="90" as="sourcePoint" />
            <mxPoint x="610" y="90" as="targetPoint" />
          </mxGeometry>
        </mxCell>
        <mxCell id="tK23bqZ6_Czorj_P_Bk--13" value="" style="endArrow=none;html=1;rounded=0;entryX=0.013;entryY=0.44;entryDx=0;entryDy=0;entryPerimeter=0;" parent="1" edge="1">
          <mxGeometry width="50" height="50" relative="1" as="geometry">
            <mxPoint x="489.9999999999999" y="40.2" as="sourcePoint" />
            <mxPoint x="580.91" y="40.000000000000014" as="targetPoint" />
            <Array as="points">
              <mxPoint x="530" y="40.2" />
            </Array>
          </mxGeometry>
        </mxCell>
        <mxCell id="tK23bqZ6_Czorj_P_Bk--15" value="" style="endArrow=none;html=1;rounded=0;entryX=0.013;entryY=0.44;entryDx=0;entryDy=0;entryPerimeter=0;" parent="1" edge="1">
          <mxGeometry width="50" height="50" relative="1" as="geometry">
            <mxPoint x="519.0899999999999" y="200.2" as="sourcePoint" />
            <mxPoint x="610" y="200" as="targetPoint" />
          </mxGeometry>
        </mxCell>
        <mxCell id="tK23bqZ6_Czorj_P_Bk--16" value="" style="endArrow=none;html=1;rounded=0;entryX=0.013;entryY=0.44;entryDx=0;entryDy=0;entryPerimeter=0;" parent="1" edge="1">
          <mxGeometry width="50" height="50" relative="1" as="geometry">
            <mxPoint x="519.9999999999999" y="280.2" as="sourcePoint" />
            <mxPoint x="610.91" y="280" as="targetPoint" />
          </mxGeometry>
        </mxCell>
        <mxCell id="tK23bqZ6_Czorj_P_Bk--17" value="" style="endArrow=none;html=1;rounded=0;entryX=0.25;entryY=0;entryDx=0;entryDy=0;exitX=0.478;exitY=1;exitDx=0;exitDy=0;exitPerimeter=0;" parent="1" source="uYIiVFCoQzqRn4Q6k0h5-3" target="uYIiVFCoQzqRn4Q6k0h5-6" edge="1">
          <mxGeometry width="50" height="50" relative="1" as="geometry">
            <mxPoint x="400" y="330" as="sourcePoint" />
            <mxPoint x="490" y="340" as="targetPoint" />
          </mxGeometry>
        </mxCell>
        <mxCell id="tK23bqZ6_Czorj_P_Bk--19" value="" style="endArrow=none;html=1;rounded=0;entryX=0.3;entryY=0;entryDx=0;entryDy=0;entryPerimeter=0;exitX=0.003;exitY=0.33;exitDx=0;exitDy=0;exitPerimeter=0;" parent="1" source="tK23bqZ6_Czorj_P_Bk--2" target="tK23bqZ6_Czorj_P_Bk--5" edge="1">
          <mxGeometry width="50" height="50" relative="1" as="geometry">
            <mxPoint x="209.9999999999999" y="295.05" as="sourcePoint" />
            <mxPoint x="300.90999999999997" y="294.85" as="targetPoint" />
          </mxGeometry>
        </mxCell>
        <mxCell id="tK23bqZ6_Czorj_P_Bk--21" value="" style="endArrow=none;html=1;rounded=0;exitX=1.002;exitY=0.68;exitDx=0;exitDy=0;exitPerimeter=0;" parent="1" source="tK23bqZ6_Czorj_P_Bk--5" edge="1">
          <mxGeometry width="50" height="50" relative="1" as="geometry">
            <mxPoint x="349.99999999999994" y="380.00000000000006" as="sourcePoint" />
            <mxPoint x="340" y="380" as="targetPoint" />
          </mxGeometry>
        </mxCell>
        <mxCell id="tK23bqZ6_Czorj_P_Bk--22" value="" style="endArrow=none;html=1;rounded=0;" parent="1" edge="1">
          <mxGeometry width="50" height="50" relative="1" as="geometry">
            <mxPoint x="340" y="320" as="sourcePoint" />
            <mxPoint x="340" y="380" as="targetPoint" />
          </mxGeometry>
        </mxCell>
      </root>
    </mxGraphModel>
  </diagram>
</mxfile>
